# xmcd
#
# Track frame offsets: 
#        150
#        12226
#        26945
#        42620
#        58491
#        78831
#        94224
#        119416
#        134765
#        154874
#        167097
#        186150
#        203604
#        217815
#
# Disc length: 3263 seconds
#
# Revision: 0
# Processed by: cddbd v1.5.2PL0 Copyright (c) Steve Scherf et al.
# Submitted via: ExactAudioCopy v1.0b4
#
DISCID=ca0cbd0e
DTITLE=Andy T Nick Nixon Band - Numbers Man
DYEAR=2015
DGENRE=Blues
TTITLE0=Shut the Front Door
TTITLE1=Devil's Wife
TTITLE2=Deep Blue Sea
TTITLE3=Tall Drink of Water
TTITLE4=Numbers Man
TTITLE5=Pretty Girls Everywhere
TTITLE6=Blue Monday
TTITLE7=Hightailin'
TTITLE8=Sundown Blues
TTITLE9=Tell Me What's the Reason
TTITLE10=Be Somebody Some Day
TTITLE11=What Went Wrong
TTITLE12=Gate's Salty Blues
TTITLE13=This World We Live In
EXTD=
EXTT0=
EXTT1=
EXTT2=
EXTT3=
EXTT4=
EXTT5=
EXTT6=
EXTT7=
EXTT8=
EXTT9=
EXTT10=
EXTT11=
EXTT12=
EXTT13=
PLAYORDER=
